{"title":"The Tournament.2009.DvDRip.XViD.Swe_Sub.avi","uid":5489765,"size":734265344,"categoryP":"video","categoryS":"movies","magnet":"?xt=urn:btih:72a587508b101b28ef334f88d2edaaeaa21ab688&amp;dn=The+Tournament.2009.DvDRip.XViD.Swe_Sub.avi&amp;tr=udp%3A%2F%2Ftracker.openbittorrent.com%3A80&amp;tr=udp%3A%2F%2Fopen.demonii.com%3A1337&amp;tr=udp%3A%2F%2Ftracker.coppersurfer.tk%3A6969&amp;tr=udp%3A%2F%2Fexodus.desync.com%3A6969","seeders":1,"leechers":0,"uploader":"Zen_Bud","files":-1,"time":1270923907,"description":"General\nComplete name                    : The Tournament.avi\nFormat                           : AVI\nFormat/Info                      : Audio Video Interleave\nFile size                        : 700 MiB\nDuration                         : 1h 35mn\nOverall bit rate                 : 1 028 Kbps\nWriting application              : VirtualDubMod 1.5.4.1 (build 2178/release)\nWriting library                  : VirtualDubMod build 2178/release\n\nVideo\nID                               : 0\nFormat                           : MPEG-4 Visual\nCodec ID/Hint                    : XviD\nDuration                         : 1h 35mn\nBit rate                         : 903 Kbps\nWidth                            : 608 pixels\nHeight                           : 336 pixels\nDisplay aspect ratio             : 16:9\nResolution                       : 8 bits\nColorimetry                      : 4:2:0\nScan type                        : Progressive\nBits/(Pixel*Frame)               : 0.184\nStream size                      : 615 MiB (88%)\nWriting library                  : XviD 1.2.1 (UTC 2008-12-04)\n\nAudio\nID                               : 1\nFormat                           : MPEG Audio\nFormat_Settings_ModeExtension    : MS Stereo\nCodec ID                         : 55\nCodec ID/Hint                    : MP3\nDuration                         : 1h 35mn\nBit rate mode                    : Variable\nBit rate                         : 112 Kbps\nNominal bit rate                 : 128 Kbps\nChannel(s)                       : 2 channels\nSampling rate                    : 48.0 KHz\nStream size                      : 76.3 MiB (11%))\nInterleave, preload duration     : 164 ms\nWriting library                  : LAME3.98r\nLanguage                         : English\n\n","torrent":{"xt":"urn:btih:72a587508b101b28ef334f88d2edaaeaa21ab688","amp;dn":"The+Tournament.2009.DvDRip.XViD.Swe_Sub.avi","amp;tr":["udp%3A%2F%2Ftracker.openbittorrent.com%3A80","udp%3A%2F%2Fopen.demonii.com%3A1337","udp%3A%2F%2Ftracker.coppersurfer.tk%3A6969","udp%3A%2F%2Fexodus.desync.com%3A6969"],"infoHash":"72a587508b101b28ef334f88d2edaaeaa21ab688","infoHashBuffer":{"type":"Buffer","data":[114,165,135,80,139,16,27,40,239,51,79,136,210,237,170,234,162,26,182,136]},"announce":[],"urlList":[]}}